<svg width="312" height="15" viewBox="0 0 312 15" fill="none" xmlns="http://www.w3.org/2000/svg">
<path d="M0 3.00283H3.00141V6.00563H0V3.00283ZM0 9.0014H3.00141V12.0042H0V9.0014ZM3.00141 6.00563H6.00282V9.00846H3.00141V6.00563ZM6.00282 0H9.00423V5.99858H6.00282V0ZM6.00282 9.0014H9.00423V15H6.00282V9.0014ZM8.99718 6.00563H11.9986V9.00846H8.99718V6.00563ZM11.9986 3.00283H15V6.00563H11.9986V3.00283ZM11.9986 9.0014H15V12.0042H11.9986V9.0014Z" fill="#2A1D64"/>
<path d="M264 3.00283H267.001V6.00563H264V3.00283ZM264 9.0014H267.001V12.0042H264V9.0014ZM267.001 6.00563H270.003V9.00846H267.001V6.00563ZM270.003 0H273.004V5.99858H270.003V0ZM270.003 9.0014H273.004V15H270.003V9.0014ZM272.997 6.00563H275.999V9.00846H272.997V6.00563ZM275.999 3.00283H279V6.00563H275.999V3.00283ZM275.999 9.0014H279V12.0042H275.999V9.0014Z" fill="#2A1D64"/>
<path d="M132 3.00283H135.001V6.00563H132V3.00283ZM132 9.0014H135.001V12.0042H132V9.0014ZM135.001 6.00563H138.003V9.00846H135.001V6.00563ZM138.003 0H141.004V5.99858H138.003V0ZM138.003 9.0014H141.004V15H138.003V9.0014ZM140.997 6.00563H143.999V9.00846H140.997V6.00563ZM143.999 3.00283H147V6.00563H143.999V3.00283ZM143.999 9.0014H147V12.0042H143.999V9.0014Z" fill="#2A1D64"/>
<path d="M66 3.00283H69.0014V6.00563H66V3.00283ZM66 9.0014H69.0014V12.0042H66V9.0014ZM69.0014 6.00563H72.0028V9.00846H69.0014V6.00563ZM72.0028 0H75.0042V5.99858H72.0028V0ZM72.0028 9.0014H75.0042V15H72.0028V9.0014ZM74.9972 6.00563H77.9986V9.00846H74.9972V6.00563ZM77.9986 3.00283H81V6.00563H77.9986V3.00283ZM77.9986 9.0014H81V12.0042H77.9986V9.0014Z" fill="#2A1D64"/>
<path d="M198 3.00283H201.001V6.00563H198V3.00283ZM198 9.0014H201.001V12.0042H198V9.0014ZM201.001 6.00563H204.003V9.00846H201.001V6.00563ZM204.003 0H207.004V5.99858H204.003V0ZM204.003 9.0014H207.004V15H204.003V9.0014ZM206.997 6.00563H209.999V9.00846H206.997V6.00563ZM209.999 3.00283H213V6.00563H209.999V3.00283ZM209.999 9.0014H213V12.0042H209.999V9.0014Z" fill="#2A1D64"/>
<path d="M33 3.00283H36.0014V6.00563H33V3.00283ZM33 9.0014H36.0014V12.0042H33V9.0014ZM36.0014 6.00563H39.0028V9.00846H36.0014V6.00563ZM39.0028 0H42.0042V5.99858H39.0028V0ZM39.0028 9.0014H42.0042V15H39.0028V9.0014ZM41.9972 6.00563H44.9986V9.00846H41.9972V6.00563ZM44.9986 3.00283H48V6.00563H44.9986V3.00283ZM44.9986 9.0014H48V12.0042H44.9986V9.0014Z" fill="#2A1D64"/>
<path d="M297 3.00283H300.001V6.00563H297V3.00283ZM297 9.0014H300.001V12.0042H297V9.0014ZM300.001 6.00563H303.003V9.00846H300.001V6.00563ZM303.003 0H306.004V5.99858H303.003V0ZM303.003 9.0014H306.004V15H303.003V9.0014ZM305.997 6.00563H308.999V9.00846H305.997V6.00563ZM308.999 3.00283H312V6.00563H308.999V3.00283ZM308.999 9.0014H312V12.0042H308.999V9.0014Z" fill="#2A1D64"/>
<path d="M165 3.00283H168.001V6.00563H165V3.00283ZM165 9.0014H168.001V12.0042H165V9.0014ZM168.001 6.00563H171.003V9.00846H168.001V6.00563ZM171.003 0H174.004V5.99858H171.003V0ZM171.003 9.0014H174.004V15H171.003V9.0014ZM173.997 6.00563H176.999V9.00846H173.997V6.00563ZM176.999 3.00283H180V6.00563H176.999V3.00283ZM176.999 9.0014H180V12.0042H176.999V9.0014Z" fill="#2A1D64"/>
<path d="M99 3.00283H102.001V6.00563H99V3.00283ZM99 9.0014H102.001V12.0042H99V9.0014ZM102.001 6.00563H105.003V9.00846H102.001V6.00563ZM105.003 0H108.004V5.99858H105.003V0ZM105.003 9.0014H108.004V15H105.003V9.0014ZM107.997 6.00563H110.999V9.00846H107.997V6.00563ZM110.999 3.00283H114V6.00563H110.999V3.00283ZM110.999 9.0014H114V12.0042H110.999V9.0014Z" fill="#2A1D64"/>
<path d="M231 3.00283H234.001V6.00563H231V3.00283ZM231 9.0014H234.001V12.0042H231V9.0014ZM234.001 6.00563H237.003V9.00846H234.001V6.00563ZM237.003 0H240.004V5.99858H237.003V0ZM237.003 9.0014H240.004V15H237.003V9.0014ZM239.997 6.00563H242.999V9.00846H239.997V6.00563ZM242.999 3.00283H246V6.00563H242.999V3.00283ZM242.999 9.0014H246V12.0042H242.999V9.0014Z" fill="#2A1D64"/>
</svg>
