<svg width="36" height="35" viewBox="0 0 36 35" fill="none" xmlns="http://www.w3.org/2000/svg">
<path fill-rule="evenodd" clip-rule="evenodd" d="M17.9402 0C8.0285 0 0 8.0285 0 17.9402C0 25.8696 5.14309 32.5876 12.2685 34.9664C13.1606 35.1316 13.491 34.5809 13.491 34.0964C13.491 33.6669 13.48 32.5435 13.4689 31.0457C8.48004 32.125 7.42279 28.6449 7.42279 28.6449C6.60782 26.5745 5.42943 26.0128 5.42943 26.0128C3.7995 24.9005 5.55057 24.9225 5.55057 24.9225C7.3457 25.0547 8.30383 26.7727 8.30383 26.7727C9.90072 29.5149 12.4998 28.722 13.524 28.2594C13.6892 27.1031 14.1518 26.3101 14.6584 25.8586C10.6826 25.4181 6.49769 23.8763 6.49769 17.0041C6.49769 15.0438 7.19151 13.4469 8.34788 12.1914C8.16066 11.7289 7.54393 9.91173 8.51308 7.44481C8.51308 7.44481 10.0219 6.96024 13.4469 9.28399C14.8786 8.88752 16.4094 8.68929 17.9402 8.67827C19.46 8.68929 21.0019 8.88752 22.4336 9.28399C25.8586 6.96024 27.3674 7.44481 27.3674 7.44481C28.3476 9.91173 27.7308 11.7399 27.5436 12.1914C28.689 13.4469 29.3828 15.0438 29.3828 17.0041C29.3828 23.8983 25.1868 25.4071 21.1891 25.8586C21.8278 26.4093 22.4115 27.5106 22.4115 29.1845C22.4115 31.5854 22.3895 33.5127 22.3895 34.1074C22.3895 34.5919 22.7089 35.1426 23.623 34.9664C30.7484 32.5876 35.8805 25.8696 35.8805 17.9512C35.8805 8.0285 27.852 0 17.9402 0Z" fill="#ABB6E1"/>
</svg>
