<svg width="35" height="35" viewBox="0 0 35 35" fill="none" xmlns="http://www.w3.org/2000/svg">
<path d="M17.5034 3.15198C22.1801 3.15198 22.7339 3.17249 24.5732 3.25454C26.2825 3.32975 27.2055 3.61692 27.8209 3.85622C28.6345 4.17074 29.2225 4.55362 29.831 5.16214C30.4464 5.7775 30.8224 6.35866 31.1369 7.1723C31.3762 7.78765 31.6634 8.71752 31.7386 10.42C31.8207 12.2661 31.8412 12.8199 31.8412 17.4897C31.8412 22.1664 31.8207 22.7203 31.7386 24.5595C31.6634 26.2688 31.3762 27.1918 31.1369 27.8072C30.8224 28.6208 30.4395 29.2088 29.831 29.8174C29.2157 30.4327 28.6345 30.8088 27.8209 31.1233C27.2055 31.3626 26.2756 31.6497 24.5732 31.7249C22.7271 31.807 22.1733 31.8275 17.5034 31.8275C12.8267 31.8275 12.2729 31.807 10.4337 31.7249C8.72436 31.6497 7.80133 31.3626 7.18597 31.1233C6.37234 30.8088 5.78433 30.4259 5.17582 29.8174C4.56046 29.202 4.18441 28.6208 3.8699 27.8072C3.63059 27.1918 3.34343 26.262 3.26822 24.5595C3.18617 22.7134 3.16566 22.1596 3.16566 17.4897C3.16566 12.8131 3.18617 12.2592 3.26822 10.42C3.34343 8.71069 3.63059 7.78765 3.8699 7.1723C4.18441 6.35866 4.5673 5.77066 5.17582 5.16214C5.79117 4.54679 6.37234 4.17074 7.18597 3.85622C7.80133 3.61692 8.7312 3.32975 10.4337 3.25454C12.2729 3.17249 12.8267 3.15198 17.5034 3.15198ZM17.5034 0C12.7515 0 12.1567 0.0205118 10.2901 0.102559C8.43036 0.184606 7.15179 0.485446 6.04415 0.916195C4.88865 1.36745 3.91092 1.9623 2.94003 2.94003C1.9623 3.91092 1.36745 4.88865 0.916194 6.03731C0.485446 7.15179 0.184606 8.42352 0.102559 10.2833C0.0205118 12.1567 0 12.7515 0 17.5034C0 22.2553 0.0205118 22.8502 0.102559 24.7167C0.184606 26.5765 0.485446 27.8551 0.916194 28.9627C1.36745 30.1182 1.9623 31.0959 2.94003 32.0668C3.91092 33.0377 4.88865 33.6394 6.03731 34.0838C7.15179 34.5146 8.42352 34.8154 10.2833 34.8974C12.1498 34.9795 12.7447 35 17.4966 35C22.2485 35 22.8433 34.9795 24.7099 34.8974C26.5696 34.8154 27.8482 34.5146 28.9559 34.0838C30.1045 33.6394 31.0822 33.0377 32.0531 32.0668C33.024 31.0959 33.6257 30.1182 34.0701 28.9695C34.5009 27.8551 34.8017 26.5833 34.8838 24.7236C34.9658 22.857 34.9863 22.2622 34.9863 17.5103C34.9863 12.7584 34.9658 12.1635 34.8838 10.2969C34.8017 8.4372 34.5009 7.15863 34.0701 6.05099C33.6394 4.88865 33.0445 3.91092 32.0668 2.94003C31.0959 1.96913 30.1182 1.36745 28.9695 0.923032C27.855 0.492284 26.5833 0.191444 24.7236 0.109396C22.8502 0.0205118 22.2553 0 17.5034 0Z" fill="#ABB6E1"/>
<path d="M17.5037 8.51245C12.5398 8.51245 8.5127 12.5396 8.5127 17.5035C8.5127 22.4673 12.5398 26.4945 17.5037 26.4945C22.4676 26.4945 26.4947 22.4673 26.4947 17.5035C26.4947 12.5396 22.4676 8.51245 17.5037 8.51245ZM17.5037 23.3357C14.2834 23.3357 11.6715 20.7238 11.6715 17.5035C11.6715 14.2831 14.2834 11.6713 17.5037 11.6713C20.7241 11.6713 23.3359 14.2831 23.3359 17.5035C23.3359 20.7238 20.7241 23.3357 17.5037 23.3357Z" fill="#ABB6E1"/>
<path d="M28.9491 8.15678C28.9491 9.31912 28.0055 10.2558 26.85 10.2558C25.6877 10.2558 24.751 9.31229 24.751 8.15678C24.751 6.99445 25.6945 6.05774 26.85 6.05774C28.0055 6.05774 28.9491 7.00128 28.9491 8.15678Z" fill="#ABB6E1"/>
</svg>
