<svg width="260" height="42" viewBox="0 0 260 42" fill="none" xmlns="http://www.w3.org/2000/svg">
<path d="M7.27715 29.3987C7.27715 27.5823 8.66703 27.8922 10.2533 25.8059C11.2197 24.5295 11.4498 21.6332 11.4498 18.3871L11.4897 9.73181C11.4897 7.52887 10.5233 6.44581 8.4768 6.44581C6.66046 6.44581 5.3841 7.06251 4.11082 9.45874C3.02776 11.5083 2.60436 12.5116 1.328 12.395C-0.141642 12.2784 -0.17846 9.53544 0.208127 6.13593C0.631532 2.42653 1.75141 1.19006 3.80094 1.19006C5.85046 1.19006 8.51669 2.50323 14.3493 2.50323C20.1818 2.50323 22.8511 1.19006 24.8976 1.19006C26.944 1.19006 28.067 2.42653 28.4934 6.13593C28.88 9.53544 28.8401 12.2814 27.3736 12.395C26.0972 12.5116 25.6738 11.5052 24.5907 9.45874C23.2377 6.98581 21.9644 6.44581 20.0315 6.44581C18.1384 6.44581 17.0554 7.4491 17.0554 9.73181L17.0953 18.3871C17.0953 21.6332 17.3284 24.5326 18.2918 25.8059C19.875 27.8922 21.2679 27.5823 21.2679 29.3987C21.2679 30.2486 20.6114 31.0984 18.9116 31.0984C17.3652 31.0984 15.8189 30.9051 14.2756 30.9051C13.3091 30.9051 11.6094 31.0984 9.63963 31.0984C7.93681 31.0984 7.27715 30.2486 7.27715 29.3987Z" fill="#EDECE9"/>
<path d="M22.9683 20.2403C22.9683 14.058 28.1074 9.07227 34.483 9.07227C40.8218 9.07227 45.9978 13.788 45.9978 20.2403C45.9978 26.4626 40.8188 31.4851 34.483 31.4851C28.1074 31.4851 22.9683 26.7326 22.9683 20.2403ZM38.3489 27.1959C40.7053 26.4227 40.6286 23.0232 39.2387 19.5439C37.8089 15.9879 33.9829 11.7784 30.8534 12.8216C28.6137 13.5548 28.4572 17.1507 30.1569 21.0534C31.78 24.8027 35.2961 28.2022 38.3489 27.1959Z" fill="#EDECE9"/>
<path d="M50.5127 32.9946C49.5861 32.338 48.773 31.4114 48.1563 30.1351C47.2298 28.2021 48.773 26.3091 50.0893 25.1493C50.6293 24.686 51.0159 24.2994 50.2826 23.603L50.0893 23.4496C50.0494 23.4097 49.9727 23.3729 49.9359 23.333L49.9758 23.3729C48.3527 21.8664 47.3862 19.9335 47.3862 17.7305C47.3862 12.978 52.5254 9.07527 58.9777 9.07527C62.3404 9.07527 64.4636 8.3788 65.3932 7.45221C66.5131 6.33234 65.8964 4.16622 66.2431 3.7827C66.7064 3.24271 71.8087 3.74282 71.189 7.99528C70.919 9.96503 68.8694 10.8548 66.3198 10.9714C68.9093 12.5546 70.5324 14.914 70.5324 17.7336C70.5324 22.5629 65.3533 26.4656 58.9777 26.4656C57.6247 26.4656 56.3115 26.3122 55.1149 26.0023L55.1916 26.0422C54.265 25.7722 53.8386 26.0422 53.5287 26.3122C52.8721 26.9289 52.7187 28.1285 53.2587 28.7084C54.1853 29.6749 56.3514 30.1381 61.0272 28.6685C66.7463 26.892 69.8758 26.1189 71.2289 26.8123C72.7752 27.6223 73.3551 32.2214 68.176 36.7807C62.7669 41.5732 53.2617 42.0364 49.9758 40.4901C46.3799 38.8272 47.5396 34.7312 50.5127 32.9946ZM59.4778 37.5907C64.7704 37.5508 66.7033 34.8079 66.7033 33.8414C66.7033 32.8749 65.9302 32.3718 63.7272 32.9516C59.4778 34.0715 54.802 35.1914 51.4393 33.5315C52.7923 36.3941 55.7684 37.6306 59.4778 37.5907ZM61.9508 23.1397C63.7671 22.523 63.7272 19.8936 62.6472 17.2274C61.5274 14.4445 58.5512 11.1984 56.155 12.0115C54.4154 12.5914 54.3387 15.3742 55.615 18.3871C56.8515 21.2835 59.5944 23.9497 61.9508 23.1397Z" fill="#EDECE9"/>
<path d="M72.7695 20.2402C72.7695 14.0578 77.7553 9.03528 83.9744 9.03528C89.1136 9.03528 92.3597 11.5481 92.3597 17.1107C92.3597 19.4302 91.6632 19.6235 89.2302 19.7769L79.2986 20.4734C79.4919 21.0532 79.725 21.6699 80.0319 22.213C82.8147 27.392 89.6137 26.6956 92.2032 24.5325C93.0132 23.8361 93.363 23.7225 93.8263 24.0692C94.4062 24.4957 94.3663 24.959 93.8263 25.8856C91.7767 29.595 88.1471 31.488 83.9714 31.488C77.7553 31.485 72.7695 26.7324 72.7695 20.2402ZM86.3338 16.1841C86.3338 12.7447 83.6277 10.8117 80.8081 12.5514C79.4182 13.4013 78.7218 15.2575 78.7586 17.3438L86.3338 16.1841Z" fill="#EDECE9"/>
<path d="M97.4629 20.2403C97.9661 11.8949 95.1833 14.9079 94.1003 13.0915C93.5971 12.2416 93.9837 11.3918 94.7967 10.772C95.7233 10.0755 97.2697 9.38212 98.816 8.06588C100.749 6.44283 101.829 4.35648 103.338 5.12966C104.458 5.70954 104.265 7.06259 103.918 8.83906C103.842 9.30235 103.725 9.84234 103.648 10.4222L112.11 10.189C113.387 10.1492 113.693 10.7689 113.23 11.6587C112.147 13.7849 111.761 15.0582 108.478 14.8281L103.262 14.4415C103.185 15.5246 103.108 16.5278 103.108 17.2243C102.992 22.7501 105.041 26.1895 107.901 26.1895C110.104 26.1895 111.187 25.493 112.307 24.5265C113.117 23.8301 113.466 23.7165 113.93 24.0632C114.51 24.4897 114.433 24.953 113.93 25.8796C111.92 29.589 108.637 31.482 104.848 31.482C100.169 31.4851 97.0764 26.7325 97.4629 20.2403Z" fill="#EDECE9"/>
<path d="M114.151 29.5153C114.151 27.699 115.347 27.7757 116.74 25.9225C117.707 24.6462 117.937 21.7867 117.937 18.427V14.6777C117.937 11.4316 117.937 10.0479 116.237 9.19802C115.194 8.65803 114.461 8.85132 113.841 7.80815C113.338 6.95827 113.724 6.10839 114.537 5.48863C115.464 4.79215 116.47 4.36875 117.784 3.40228C119.137 2.39899 119.833 1.589 121.07 0.66242C122.229 -0.227345 123.389 -0.227345 124.082 0.702306C124.856 1.74548 124.586 2.43888 124.199 3.90546C123.579 6.2618 123.579 9.88836 123.579 12.7479V13.9843C125.396 10.6186 128.372 8.882 132.238 8.882C136.953 8.882 139.85 11.9348 139 18.0404C138.227 23.6828 138.497 25.0358 140.16 26.6957C141.319 27.8555 141.589 28.3955 141.473 29.5153C141.356 30.5186 140.546 31.2151 139.116 31.2151C137.57 31.2151 135.947 30.9052 134.287 30.9052C132.664 30.9052 132.394 31.2151 130.811 31.2151C129.381 31.2151 128.878 30.4818 128.841 29.5153C128.764 27.699 131.121 27.3124 132.897 22.1732C134.637 17.1108 131.121 12.2416 126.985 13.9813C122.889 15.7209 122.502 21.8634 124.782 25.9225C125.632 27.429 126.288 28.5489 126.212 29.5153C126.135 30.5186 125.285 31.2151 124.242 31.2151C123.082 31.2151 122.426 30.9052 120.766 30.9052C119.143 30.9052 118.486 31.2151 116.516 31.2151C115.081 31.2151 114.151 30.5217 114.151 29.5153Z" fill="#EDECE9"/>
<path d="M142.282 20.2402C142.282 14.0578 147.268 9.03528 153.487 9.03528C158.626 9.03528 161.872 11.5481 161.872 17.1107C161.872 19.4302 161.176 19.6235 158.743 19.7769L148.811 20.4734C149.005 21.0532 149.238 21.6699 149.545 22.213C152.327 27.392 159.126 26.6956 161.716 24.5325C162.526 23.8361 162.876 23.7225 163.339 24.0692C163.919 24.4957 163.879 24.959 163.339 25.8856C161.289 29.595 157.66 31.488 153.484 31.488C147.268 31.485 142.282 26.7324 142.282 20.2402ZM155.847 16.1841C155.847 12.7447 153.14 10.8117 150.321 12.5514C148.931 13.4013 148.234 15.2575 148.271 17.3438L155.847 16.1841Z" fill="#EDECE9"/>
<path d="M164.152 29.3987C164.152 27.5824 166.122 27.7757 167.515 25.9225C168.481 24.6462 168.712 23.2164 168.712 20.7435C168.712 16.1075 166.085 16.4143 165.002 14.598C164.499 13.7481 164.886 12.8982 165.699 12.2784C166.625 11.582 167.515 11.582 169.255 10.502C171.264 9.22562 172.268 8.26222 173.661 8.72551C175.05 9.15198 175.05 11.1586 174.704 13.4413C174.627 13.8677 174.587 14.331 174.55 14.7943C176.713 11.2782 180.809 8.18551 183.012 7.8787C184.209 7.72529 185.059 7.80199 184.982 8.99857C184.942 9.69505 184.286 12.5546 184.402 14.9109C184.519 17.1138 185.252 19.2769 183.822 19.8568C182.276 20.4765 181.349 17.6937 179.959 16.264C178.53 14.7943 174.627 14.9508 174.357 21.0932C174.434 23.6429 174.704 24.8026 175.554 25.9225C176.983 27.7787 179.996 27.0056 179.959 29.2453C179.92 30.5217 178.876 31.2151 177.72 31.2151C176.56 31.2151 173.97 30.9052 172.311 30.9052C170.688 30.9052 168.485 31.2151 166.515 31.2151C165.079 31.2151 164.152 30.4051 164.152 29.3987Z" fill="#EDECE9"/>
<path d="M212.257 31.4483C211.29 30.3284 200.355 17.2673 193.823 9.65523C193.477 9.22875 193.283 9.22875 193.204 9.80863C193.01 10.8518 192.894 12.708 192.894 14.6379V18.3872C192.894 21.6333 193.127 24.5327 194.09 25.806C195.673 27.8923 197.066 27.5825 197.066 29.3988C197.066 30.4021 196.14 31.0986 194.71 31.0986C193.164 31.0986 192.507 30.7887 191.04 30.7887C189.611 30.7887 189.341 31.0986 187.371 31.0986C185.941 31.0986 185.015 30.4021 185.015 29.3988C185.015 27.5825 186.405 27.8923 187.991 25.806C188.957 24.5296 189.187 21.6333 189.187 18.3872V14.6379C189.187 11.3918 188.954 8.4924 187.991 7.21911C186.408 5.13277 185.401 5.05606 185.401 3.77971C185.401 2.61995 186.328 1.92348 187.758 1.92348C188.917 1.92348 189.614 2.23336 191.044 2.23336C192.513 2.23336 192.743 1.92348 194.33 1.92348C195.606 1.92348 196.339 2.65677 196.956 3.42994L211.37 21.1271C211.68 21.4738 211.873 21.3602 211.873 20.8939V14.6348C211.873 11.3887 211.64 8.48933 210.677 7.21604C209.094 5.1297 208.087 5.053 208.087 3.77664C208.087 2.61688 209.014 1.92041 210.444 1.92041C211.603 1.92041 212.3 2.23029 213.73 2.23029C215.199 2.23029 215.429 1.92041 217.012 1.92041C218.442 1.92041 219.369 2.61688 219.369 3.77664C219.369 5.053 218.365 5.1297 216.779 7.21604C215.813 8.4924 215.583 11.3887 215.583 14.6348V30.0523C215.583 31.4821 215.466 32.4087 214.77 32.6787C214.033 32.9548 213.26 32.6449 212.257 31.4483Z" fill="#EDECE9"/>
<path d="M218.434 20.2402C218.434 14.0578 223.419 9.03528 229.638 9.03528C234.778 9.03528 238.024 11.5481 238.024 17.1107C238.024 19.4302 237.327 19.6235 234.894 19.7769L224.963 20.4734C225.156 21.0532 225.389 21.6699 225.696 22.213C228.479 27.392 235.278 26.6956 237.867 24.5325C238.677 23.8361 239.027 23.7225 239.49 24.0692C240.07 24.4957 240.03 24.959 239.49 25.8856C237.441 29.595 233.811 31.488 229.635 31.488C223.419 31.485 218.434 26.7324 218.434 20.2402ZM231.998 16.1841C231.998 12.7447 229.292 10.8117 226.472 12.5514C225.082 13.4013 224.386 15.2575 224.423 17.3438L231.998 16.1841Z" fill="#EDECE9"/>
<path d="M243.127 20.2403C243.63 11.8949 240.847 14.9079 239.764 13.0915C239.261 12.2416 239.647 11.3918 240.46 10.772C241.387 10.0755 242.933 9.38212 244.48 8.06588C246.413 6.44283 247.493 4.35648 249.002 5.12966C250.122 5.70954 249.929 7.06259 249.582 8.83906C249.505 9.30235 249.389 9.84234 249.312 10.4222L257.774 10.189C259.05 10.1492 259.357 10.7689 258.894 11.6587C257.811 13.7849 257.424 15.0582 254.141 14.8281L248.925 14.4415C248.849 15.5246 248.772 16.5278 248.772 17.2243C248.655 22.7501 250.705 26.1895 253.564 26.1895C255.767 26.1895 256.847 25.493 257.97 24.5265C258.783 23.8301 259.13 23.7165 259.593 24.0632C260.173 24.4897 260.096 24.953 259.593 25.8796C257.584 29.589 254.301 31.482 250.512 31.482C245.833 31.4851 242.74 26.7325 243.127 20.2403Z" fill="#EDECE9"/>
<path d="M23.9497 15.7087C24.8671 13.8003 25.8213 11.628 24.6983 9.66748L27.6929 12.5669L23.9497 15.7087Z" fill="#EDECE9"/>
</svg>
